<svg width="789" height="846" viewBox="0 0 789 846" fill="none" xmlns="http://www.w3.org/2000/svg">
<path fill-rule="evenodd" clip-rule="evenodd" d="M394.5 382.065C487.824 382.065 563.478 306.311 563.478 212.865C563.478 119.418 487.824 43.6645 394.5 43.6645C301.176 43.6645 225.521 119.418 225.521 212.865C225.521 306.311 301.176 382.065 394.5 382.065ZM394.5 425.729C511.908 425.729 607.086 330.426 607.086 212.865C607.086 95.3027 511.908 0 394.5 0C277.092 0 181.914 95.3027 181.914 212.865C181.914 330.426 277.092 425.729 394.5 425.729Z" fill="#08A9FD"/>
<path fill-rule="evenodd" clip-rule="evenodd" d="M394.5 802.336C487.824 802.336 563.478 726.582 563.478 633.135C563.478 539.689 487.824 463.935 394.5 463.935C301.176 463.935 225.521 539.689 225.521 633.135C225.521 726.582 301.176 802.336 394.5 802.336ZM394.5 846C511.908 846 607.086 750.697 607.086 633.135C607.086 515.574 511.908 420.271 394.5 420.271C277.092 420.271 181.914 515.574 181.914 633.135C181.914 750.697 277.092 846 394.5 846Z" fill="#08A9FD"/>
<path fill-rule="evenodd" clip-rule="evenodd" d="M213.844 489.022C307.863 489.022 384.08 412.704 384.08 318.562C384.08 224.42 307.863 148.102 213.844 148.102C119.825 148.103 43.6074 224.42 43.6074 318.562C43.6074 412.704 119.825 489.022 213.844 489.022ZM213.844 532.686C331.947 532.686 427.688 436.82 427.688 318.562C427.688 200.305 331.947 104.438 213.844 104.438C95.7411 104.438 -2.06497e-05 200.305 0 318.562C2.06497e-05 436.82 95.7412 532.686 213.844 532.686Z" fill="#08A9FD"/>
<path fill-rule="evenodd" clip-rule="evenodd" d="M745.392 527.437C745.392 433.295 669.174 356.977 575.155 356.977C481.136 356.977 404.919 433.295 404.919 527.437C404.919 621.579 481.136 697.896 575.155 697.896C669.174 697.896 745.392 621.579 745.392 527.437ZM788.999 527.437C788.999 409.179 693.258 313.313 575.155 313.313C457.052 313.313 361.311 409.179 361.311 527.437C361.311 645.694 457.052 741.561 575.155 741.561C693.258 741.561 788.999 645.694 788.999 527.437Z" fill="#08A9FD"/>
<path fill-rule="evenodd" clip-rule="evenodd" d="M542.63 507.882C589.64 426.353 561.742 322.101 480.319 275.03C398.896 227.959 294.781 255.893 247.772 337.423C200.762 418.952 228.66 523.204 310.083 570.275C391.506 617.346 495.621 589.412 542.63 507.882ZM580.395 529.715C639.447 427.301 604.403 296.344 502.123 237.216C399.843 178.087 269.058 213.177 210.007 315.591C150.955 418.005 185.999 548.961 288.279 608.09C390.559 667.218 521.344 632.129 580.395 529.715Z" fill="#08A9FD"/>
<path fill-rule="evenodd" clip-rule="evenodd" d="M384.081 527.437C384.081 433.295 307.864 356.977 213.845 356.977C119.825 356.977 43.608 433.295 43.608 527.437C43.608 621.579 119.825 697.896 213.845 697.896C307.864 697.896 384.081 621.579 384.081 527.437ZM427.688 527.437C427.688 409.179 331.947 313.313 213.845 313.313C95.7418 313.313 0.000576753 409.179 0.000581915 527.437C0.000587077 645.694 95.7418 741.561 213.845 741.561C331.947 741.561 427.688 645.694 427.688 527.437Z" fill="#08A9FD"/>
<path fill-rule="evenodd" clip-rule="evenodd" d="M575.156 148.101C481.137 148.101 404.919 224.419 404.92 318.561C404.92 412.703 481.137 489.02 575.156 489.02C669.175 489.02 745.393 412.703 745.393 318.561C745.393 224.419 669.175 148.101 575.156 148.101ZM575.156 104.437C457.053 104.437 361.312 200.303 361.312 318.561C361.312 436.818 457.053 532.685 575.156 532.685C693.259 532.685 789 436.818 789 318.561C789 200.303 693.259 104.437 575.156 104.437Z" fill="#08A9FD"/>
</svg>
